<?xml version="1.0" standalone="no"?>
<!DOCTYPE svg PUBLIC "-//W3C//DTD SVG 20010904//EN"
 "http://www.w3.org/TR/2001/REC-SVG-20010904/DTD/svg10.dtd">
<svg version="1.0" xmlns="http://www.w3.org/2000/svg"
 width="340.000000pt" height="340.000000pt" viewBox="0 0 340.000000 340.000000"
 preserveAspectRatio="xMidYMid meet">

<g transform="translate(0.000000,340.000000) scale(0.100000,-0.100000)"
fill="#000000" stroke="none">
<path d="M1215 3321 c-52 -23 -102 -81 -111 -126 -19 -102 18 -185 104 -233
l42 -23 0 -78 c0 -117 -16 -111 302 -111 244 0 266 1 281 18 19 21 21 40 7 62
-8 12 -50 16 -247 20 l-238 5 -3 46 c-3 43 -1 47 28 59 45 19 97 85 109 138
33 158 -128 290 -274 223z m142 -115 c61 -53 21 -156 -62 -156 -21 0 -44 9
-62 24 -61 53 -21 156 62 156 21 0 44 -9 62 -24z"/>
<path d="M1912 3108 c-16 -16 -15 -63 1 -76 6 -5 71 -24 142 -42 157 -38 292
-89 362 -135 94 -62 125 -133 168 -376 55 -315 86 -396 221 -579 158 -214 185
-271 148 -311 -11 -12 -49 -39 -85 -60 -178 -106 -188 -129 -217 -494 -15
-184 -45 -217 -282 -312 -61 -24 -112 -37 -178 -43 -191 -19 -225 -67 -241
-335 -8 -147 -5 -212 11 -232 13 -17 63 -17 75 0 6 6 13 80 17 163 6 158 18
240 40 269 9 13 37 20 111 27 76 7 121 19 198 49 190 76 259 120 303 194 38
65 44 95 59 293 18 231 24 244 142 317 103 63 138 97 159 151 14 37 15 51 5
90 -17 68 -38 104 -151 259 -156 214 -173 254 -220 525 -32 184 -59 290 -91
353 -65 126 -212 210 -497 283 -143 37 -181 41 -200 22z"/>
<path d="M715 3011 c-47 -22 -89 -64 -104 -104 -14 -36 -14 -118 0 -154 13
-36 64 -88 100 -104 l29 -11 0 -119 c0 -110 1 -119 22 -133 20 -14 89 -16 553
-16 400 0 534 3 543 12 16 16 15 63 -1 77 -10 7 -165 12 -513 13 l-499 3 -3
77 -3 76 42 24 c23 12 56 40 73 61 29 36 31 45 31 117 0 72 -2 81 -31 117 -60
76 -157 102 -239 64z m142 -115 c61 -53 21 -156 -62 -156 -21 0 -44 9 -62 24
-61 53 -21 156 62 156 21 0 44 -9 62 -24z"/>
<path d="M422 2555 c-61 -31 -98 -86 -108 -157 -9 -68 30 -149 89 -186 l45
-27 4 -96 c2 -62 8 -102 17 -112 12 -15 47 -17 317 -17 l303 0 28 -42 c16 -24
48 -53 71 -66 l42 -23 0 -99 c0 -91 2 -100 22 -114 20 -14 84 -16 505 -16 470
0 484 1 503 20 26 26 25 36 -5 65 l-24 25 -451 0 -450 0 0 58 0 57 46 25 c132
69 141 262 16 341 -37 23 -57 29 -104 29 -94 0 -160 -44 -190 -126 l-12 -34
-263 0 -263 0 0 64 c0 59 2 64 24 70 37 9 87 56 107 101 57 125 -25 268 -162
281 -45 5 -63 1 -107 -21z m152 -110 c20 -18 26 -34 26 -65 0 -55 -34 -90 -87
-90 -86 1 -124 91 -64 151 38 38 87 39 125 4z m750 -336 c14 -7 32 -27 41 -45
49 -104 -108 -185 -160 -83 -18 34 -18 57 -1 88 25 44 74 61 120 40z"/>
<path d="M305 1816 c-42 -18 -92 -73 -106 -114 -6 -19 -9 -58 -7 -88 8 -92 70
-159 166 -177 76 -15 172 36 206 108 l17 35 139 0 140 0 0 -175 c0 -173 0
-176 25 -200 l24 -25 576 0 c562 0 575 0 595 20 24 24 25 38 4 68 l-15 22
-550 0 -549 0 0 178 c0 138 -3 183 -14 198 -13 17 -30 19 -195 22 l-181 3 -19
37 c-10 20 -27 45 -38 54 -49 45 -155 62 -218 34z m114 -97 c85 -30 74 -158
-14 -175 -113 -21 -153 139 -45 179 22 8 24 8 59 -4z"/>
<path d="M890 1089 c-65 -27 -120 -111 -120 -184 0 -124 120 -220 242 -194 56
12 122 67 139 114 l13 35 158 0 158 0 0 -85 0 -85 -39 -19 c-182 -93 -127
-359 78 -378 37 -4 57 1 101 24 100 53 136 167 83 269 -11 24 -40 53 -71 74
l-53 35 3 80 3 80 131 5 c90 3 136 9 148 19 23 19 21 68 -3 81 -13 6 -144 10
-359 10 l-340 0 -20 34 c-11 18 -37 46 -57 62 -31 24 -49 29 -104 31 -36 2
-77 -2 -91 -8z m148 -125 c30 -34 29 -85 -2 -121 -52 -61 -156 -21 -156 60 0
87 101 126 158 61z m557 -410 c68 -74 -20 -189 -108 -142 -34 18 -46 39 -47
81 0 53 35 87 90 87 31 0 47 -6 65 -26z"/>
</g>
</svg>
